<?xml version="1.0" standalone="no"?>
<!DOCTYPE svg PUBLIC "-//W3C//DTD SVG 20010904//EN"
 "http://www.w3.org/TR/2001/REC-SVG-20010904/DTD/svg10.dtd">
<svg version="1.0" xmlns="http://www.w3.org/2000/svg"
 width="16.000000pt" height="16.000000pt" viewBox="0 0 16.000000 16.000000"
 preserveAspectRatio="xMidYMid meet">
<metadata>
Created by potrace 1.11, written by Peter Selinger 2001-2013
</metadata>
<g transform="translate(0.000000,16.000000) scale(0.006178,-0.006178)"
fill="#000000" stroke="none">
<path d="M1320 2580 c-90 -16 -191 -98 -227 -186 l-18 -44 -340 -1 c-187 0
-349 -2 -360 -3 -87 -12 -187 -72 -236 -141 -16 -22 -38 -65 -49 -95 -19 -53
-19 -79 -17 -650 l2 -595 26 -55 c33 -71 71 -115 134 -155 27 -18 70 -51 94
-74 24 -22 69 -51 100 -63 55 -23 65 -23 504 -26 340 -2 447 -6 447 -15 0 -6
20 -53 45 -103 47 -95 113 -170 205 -237 25 -17 66 -48 90 -68 25 -20 57 -44
72 -54 l28 -17 -2 64 c-1 34 2 77 5 93 4 17 9 46 12 65 8 49 55 156 95 218
l35 52 120 1 c152 1 167 3 242 40 71 34 123 89 162 169 l26 55 0 590 c0 325
-3 605 -7 623 -17 84 -87 177 -168 225 -66 39 -98 78 -106 128 -16 102 -84
192 -179 235 -130 60 -292 18 -376 -98 -16 -23 -29 -37 -29 -31 0 5 -19 30
-42 55 -77 82 -181 117 -288 98z"/>
</g>
</svg>
